# Blender3D v249 OBJ File: 
# www.blender3d.org
v 1.716092 1.716092 -2.426921
v 2.017911 1.348325 -2.426921
v 2.242183 0.928742 -2.426921
v 2.380288 0.473469 -2.426921
v 2.426921 0.000000 -2.426921
v 2.380288 -0.473469 -2.426921
v 2.242183 -0.928742 -2.426921
v 2.017911 -1.348325 -2.426921
v 1.716092 -1.716092 -2.426921
v 1.348325 -2.017911 -2.426921
v 0.928742 -2.242183 -2.426921
v 0.473468 -2.380288 -2.426921
v -0.000001 -2.426921 -2.426921
v -0.473470 -2.380288 -2.426921
v -0.928743 -2.242182 -2.426921
v -1.348326 -2.017910 -2.426921
v -1.716093 -1.716091 -2.426921
v -2.017912 -1.348324 -2.426921
v -2.242183 -0.928741 -2.426921
v -2.380289 -0.473467 -2.426921
v -2.426921 0.000002 -2.426921
v -2.380288 0.473471 -2.426921
v -2.242182 0.928745 -2.426921
v -2.017910 1.348327 -2.426921
v -1.716090 1.716094 -2.426921
v -1.348322 2.017913 -2.426921
v -0.928739 2.242184 -2.426921
v -0.473465 2.380289 -2.426921
v 0.000004 2.426921 -2.426921
v 0.473473 2.380287 -2.426921
v 0.928746 2.242181 -2.426921
v 1.348329 2.017909 -2.426921
v 1.716095 1.716089 2.426921
v 2.017914 1.348321 2.426921
v 2.242184 0.928738 2.426921
v 2.380289 0.473464 2.426921
v 2.426921 -0.000005 2.426921
v 2.380287 -0.473474 2.426921
v 2.242181 -0.928747 2.426921
v 2.017909 -1.348328 2.426921
v 1.716090 -1.716094 2.426921
v 1.348324 -2.017912 2.426921
v 0.928742 -2.242183 2.426921
v 0.473469 -2.380288 2.426921
v 0.000001 -2.426921 2.426921
v -0.473467 -2.380289 2.426921
v -0.928739 -2.242184 2.426921
v -1.348322 -2.017913 2.426921
v -1.716089 -1.716096 2.426921
v -2.017908 -1.348330 2.426921
v -2.242180 -0.928749 2.426921
v -2.380287 -0.473477 2.426921
v -2.426921 -0.000009 2.426921
v -2.380290 0.473459 2.426921
v -2.242187 0.928732 2.426921
v -2.017918 1.348315 2.426921
v -1.716101 1.716083 2.426921
v -1.348336 2.017903 2.426921
v -0.928756 2.242177 2.426921
v -0.473484 2.380285 2.426921
v -0.000017 2.426921 2.426921
v 0.473451 2.380292 2.426921
v 0.928725 2.242190 2.426921
v 1.348309 2.017922 2.426921
v 0.000000 0.000000 -2.426921
v 0.000000 0.000000 2.426921
vn 0.000000 0.000000 -1.000000
vn 0.000000 0.000000 1.000000
vn 0.634394 0.773010 0.000000
vn 0.634391 0.773013 0.000001
vn 0.471390 0.881925 0.000000
vn 0.471398 0.881920 -0.000000
vn 0.290278 0.956942 0.000000
vn 0.290286 0.956940 -0.000000
vn 0.098010 0.995185 0.000000
vn 0.098019 0.995185 -0.000000
vn -0.098024 0.995184 0.000000
vn -0.098016 0.995185 -0.000000
vn -0.290291 0.956938 0.000000
vn -0.290283 0.956941 -0.000000
vn -0.471402 0.881919 0.000000
vn -0.471396 0.881922 -0.000000
vn -0.634398 0.773007 0.000000
vn -0.634392 0.773011 -0.000000
vn -0.773013 0.634390 0.000000
vn -0.773010 0.634394 -0.000000
vn -0.881924 0.471392 0.000000
vn -0.881921 0.471397 -0.000000
vn -0.956941 0.290281 0.000000
vn -0.956940 0.290286 -0.000000
vn -0.995185 0.098013 0.000000
vn -0.995185 0.098018 -0.000000
vn -0.995184 -0.098021 0.000000
vn -0.995185 -0.098016 -0.000000
vn -0.956939 -0.290288 0.000000
vn -0.956941 -0.290284 -0.000000
vn -0.881920 -0.471399 0.000000
vn -0.881922 -0.471396 -0.000000
vn -0.773009 -0.634395 0.000000
vn -0.773011 -0.634393 -0.000000
vn -0.634392 -0.773012 0.000000
vn -0.634394 -0.773010 -0.000000
vn -0.471395 -0.881922 0.000000
vn -0.471397 -0.881921 -0.000000
vn -0.290284 -0.956941 0.000000
vn -0.290285 -0.956940 -0.000000
vn -0.098016 -0.995185 0.000000
vn -0.098017 -0.995185 -0.000000
vn 0.098018 -0.995185 0.000000
vn 0.098017 -0.995185 -0.000000
vn 0.290285 -0.956940 0.000000
vn 0.290284 -0.956940 0.000000
vn 0.471396 -0.881922 -0.000000
vn 0.471397 -0.881921 0.000000
vn 0.634393 -0.773010 -0.000000
vn 0.634393 -0.773011 0.000000
vn 0.773010 -0.634393 -0.000000
vn 0.773010 -0.634394 0.000000
vn 0.881921 -0.471397 -0.000000
vn 0.881921 -0.471398 0.000000
vn 0.956940 -0.290284 -0.000000
vn 0.956940 -0.290287 0.000000
vn 0.995185 -0.098017 -0.000000
vn 0.995184 -0.098019 0.000000
vn 0.995185 0.098017 -0.000000
vn 0.995185 0.098015 0.000000
vn 0.956940 0.290284 -0.000000
vn 0.956941 0.290283 0.000000
vn 0.881921 0.471397 -0.000000
vn 0.881922 0.471395 0.000000
vn 0.773011 0.634393 -0.000000
vn 0.773012 0.634392 0.000000
usemtl (null)
s off
f 65//1 1//1 2//1
f 66//2 34//2 33//2
f 65//1 2//1 3//1
f 66//2 35//2 34//2
f 65//1 3//1 4//1
f 66//2 36//2 35//2
f 65//1 4//1 5//1
f 66//2 37//2 36//2
f 65//1 5//1 6//1
f 66//2 38//2 37//2
f 65//1 6//1 7//1
f 66//2 39//2 38//2
f 65//1 7//1 8//1
f 66//2 40//2 39//2
f 65//1 8//1 9//1
f 66//2 41//2 40//2
f 65//1 9//1 10//1
f 66//2 42//2 41//2
f 65//1 10//1 11//1
f 66//2 43//2 42//2
f 65//1 11//1 12//1
f 66//2 44//2 43//2
f 65//1 12//1 13//1
f 66//2 45//2 44//2
f 65//1 13//1 14//1
f 66//2 46//2 45//2
f 65//1 14//1 15//1
f 66//2 47//2 46//2
f 65//1 15//1 16//1
f 66//2 48//2 47//2
f 65//1 16//1 17//1
f 66//2 49//2 48//2
f 65//1 17//1 18//1
f 66//2 50//2 49//2
f 65//1 18//1 19//1
f 66//2 51//2 50//2
f 65//1 19//1 20//1
f 66//2 52//2 51//2
f 65//1 20//1 21//1
f 66//2 53//2 52//2
f 65//1 21//1 22//1
f 66//2 54//2 53//2
f 65//1 22//1 23//1
f 66//2 55//2 54//2
f 65//1 23//1 24//1
f 66//2 56//2 55//2
f 65//1 24//1 25//1
f 66//2 57//2 56//2
f 65//1 25//1 26//1
f 66//2 58//2 57//2
f 65//1 26//1 27//1
f 66//2 59//2 58//2
f 65//1 27//1 28//1
f 66//2 60//2 59//2
f 65//1 28//1 29//1
f 66//2 61//2 60//2
f 65//1 29//1 30//1
f 66//2 62//2 61//2
f 65//1 30//1 31//1
f 66//2 63//2 62//2
f 65//1 31//1 32//1
f 66//2 64//2 63//2
f 32//1 1//1 65//1
f 66//2 33//2 64//2
f 33//3 1//3 32//3
f 33//4 32//4 64//4
f 31//5 63//5 64//5
f 31//6 64//6 32//6
f 30//7 62//7 63//7
f 30//8 63//8 31//8
f 29//9 61//9 62//9
f 29//10 62//10 30//10
f 28//11 60//11 61//11
f 28//12 61//12 29//12
f 27//13 59//13 60//13
f 27//14 60//14 28//14
f 26//15 58//15 59//15
f 26//16 59//16 27//16
f 25//17 57//17 58//17
f 25//18 58//18 26//18
f 24//19 56//19 57//19
f 24//20 57//20 25//20
f 23//21 55//21 56//21
f 23//22 56//22 24//22
f 22//23 54//23 55//23
f 22//24 55//24 23//24
f 21//25 53//25 54//25
f 21//26 54//26 22//26
f 20//27 52//27 53//27
f 20//28 53//28 21//28
f 19//29 51//29 52//29
f 19//30 52//30 20//30
f 18//31 50//31 51//31
f 18//32 51//32 19//32
f 17//33 49//33 50//33
f 17//34 50//34 18//34
f 16//35 48//35 49//35
f 16//36 49//36 17//36
f 15//37 47//37 48//37
f 15//38 48//38 16//38
f 14//39 46//39 47//39
f 14//40 47//40 15//40
f 13//41 45//41 46//41
f 13//42 46//42 14//42
f 12//43 44//43 45//43
f 12//44 45//44 13//44
f 11//45 43//45 44//45
f 11//46 44//46 12//46
f 10//47 42//47 43//47
f 10//48 43//48 11//48
f 9//49 41//49 10//49
f 41//50 42//50 10//50
f 8//51 40//51 9//51
f 40//52 41//52 9//52
f 7//53 39//53 8//53
f 39//54 40//54 8//54
f 6//55 38//55 7//55
f 38//56 39//56 7//56
f 5//57 37//57 6//57
f 37//58 38//58 6//58
f 4//59 36//59 5//59
f 36//60 37//60 5//60
f 3//61 35//61 4//61
f 35//62 36//62 4//62
f 2//63 34//63 3//63
f 34//64 35//64 3//64
f 1//65 33//65 2//65
f 33//66 34//66 2//66
