# Blender3D v249 OBJ File: 
# www.blender3d.org
v 0.488489 0.260866 -1.710257
v 0.488489 0.260866 0.289743
v -1.511511 0.260866 0.289743
v -1.511510 0.260866 -1.710257
v 0.488490 2.260866 -1.710256
v 0.488489 2.260866 0.289744
v -1.511511 2.260866 0.289743
v -1.511511 2.260866 -1.710257
vn 0.000000 0.000000 -1.000000
vn -1.000000 -0.000000 -0.000000
vn -0.000000 -0.000000 1.000000
vn 1.000000 -0.000000 0.000000
vn 1.000000 0.000000 0.000001
vn 0.000000 1.000000 0.000000
vn -0.000000 -1.000000 0.000000
usemtl Material
s off
f 5//1 1//1 4//1
f 5//1 4//1 8//1
f 3//2 7//2 8//2
f 3//2 8//2 4//2
f 2//3 6//3 3//3
f 6//3 7//3 3//3
f 1//4 5//4 2//4
f 5//5 6//5 2//5
f 5//6 8//6 7//6
f 5//6 7//6 6//6
f 1//7 2//7 3//7
f 1//7 3//7 4//7
